<?xml version="1.0" standalone="no"?>
<!DOCTYPE svg PUBLIC "-//W3C//DTD SVG 20010904//EN"
 "http://www.w3.org/TR/2001/REC-SVG-20010904/DTD/svg10.dtd">
<svg version="1.0" xmlns="http://www.w3.org/2000/svg"
 width="512.000000pt" height="512.000000pt" viewBox="0 0 512.000000 512.000000"
 preserveAspectRatio="xMidYMid meet">

<g transform="translate(0.000000,512.000000) scale(0.100000,-0.100000)"
fill="#000000" stroke="none">
<path d="M2315 5109 c-473 -48 -916 -222 -1302 -510 -126 -94 -398 -366 -492
-492 -274 -367 -433 -752 -502 -1222 -18 -120 -18 -530 0 -650 68 -463 232
-860 502 -1222 94 -125 366 -397 489 -490 366 -273 772 -439 1235 -505 118
-17 512 -17 630 0 417 60 771 192 1100 413 383 257 678 593 880 1004 155 316
232 602 257 962 24 335 -28 708 -144 1028 -60 167 -176 395 -276 545 -410 616
-1033 1011 -1772 1125 -125 19 -477 28 -605 14z m460 -159 c548 -49 1085 -301
1474 -690 191 -191 328 -381 452 -625 177 -350 253 -675 253 -1075 0 -304 -38
-530 -137 -810 -49 -139 -170 -381 -252 -505 -380 -573 -977 -954 -1662 -1060
-54 -8 -168 -18 -253 -21 -1034 -43 -1992 602 -2348 1581 -46 127 -93 311
-119 470 -25 153 -25 533 0 690 108 679 470 1255 1027 1637 451 310 1018 457
1565 408z"/>
<path d="M2355 4388 c-371 -42 -743 -210 -1030 -465 -109 -97 -135 -129 -135
-166 0 -40 36 -77 76 -77 30 0 47 12 125 86 194 183 388 300 639 386 338 115
715 116 1060 2 113 -37 343 -155 450 -231 121 -87 296 -262 382 -383 231 -324
345 -734 310 -1112 -22 -240 -74 -424 -178 -628 -86 -167 -176 -292 -309 -425
-138 -138 -261 -226 -440 -314 -154 -77 -244 -110 -380 -140 -933 -206 -1849
405 -2020 1347 -9 48 -19 150 -22 227 -12 295 48 567 184 835 68 132 71 152
33 190 -24 24 -67 26 -97 5 -52 -37 -174 -309 -223 -500 -63 -243 -76 -539
-35 -770 183 -1034 1168 -1706 2190 -1495 226 46 499 165 685 297 115 83 300
259 385 368 252 321 395 734 395 1135 0 197 -46 450 -116 638 -100 267 -242
481 -455 687 -145 140 -268 227 -443 315 -323 163 -680 228 -1031 188z"/>
<path d="M1385 2855 c-16 -15 -25 -36 -25 -55 0 -19 9 -40 25 -55 l24 -25 266
0 c151 0 274 4 284 10 31 16 46 65 31 100 -7 17 -21 35 -31 40 -10 6 -133 10
-284 10 l-266 0 -24 -25z"/>
<path d="M1385 2375 c-16 -15 -25 -36 -25 -55 0 -19 9 -40 25 -55 l24 -25 626
0 c382 0 633 4 644 10 31 16 46 65 31 100 -7 17 -21 35 -31 40 -11 6 -262 10
-644 10 l-626 0 -24 -25z"/>
</g>
</svg>
