<?xml version="1.0" standalone="no"?>
<!DOCTYPE svg PUBLIC "-//W3C//DTD SVG 20010904//EN"
 "http://www.w3.org/TR/2001/REC-SVG-20010904/DTD/svg10.dtd">
<svg version="1.0" xmlns="http://www.w3.org/2000/svg"
 width="96.000000pt" height="96.000000pt" viewBox="0 0 96.000000 96.000000"
 preserveAspectRatio="xMidYMid meet">

<g transform="translate(0.000000,96.000000) scale(0.100000,-0.100000)"
fill="#000000" stroke="none">
<path d="M195 845 c-27 -8 -53 -14 -56 -15 -19 -1 -102 -67 -119 -94 -19 -32
-20 -49 -20 -335 l0 -301 480 0 480 0 0 178 0 178 -29 46 c-39 61 -126 105
-226 114 -43 4 -78 13 -90 23 -11 10 -32 22 -47 29 -26 11 -27 10 -30 -21 -3
-32 -4 -32 -60 -35 l-58 -3 0 51 c0 38 5 55 21 71 22 22 22 22 3 56 -31 58
-58 73 -133 72 -36 0 -88 -7 -116 -14z m129 -128 c11 -8 20 -31 23 -59 l5 -45
-47 -6 c-76 -11 -75 -11 -75 36 0 47 6 58 35 75 26 15 37 15 59 -1z m-158 -51
c3 -13 4 -36 2 -51 -2 -23 -10 -30 -45 -40 l-43 -13 0 52 c0 59 12 76 52 76
21 0 29 -6 34 -24z m359 -190 c10 -15 15 -40 13 -68 l-3 -43 -55 0 -55 0 -3
43 c-4 57 18 92 58 92 20 0 35 -8 45 -24z m-200 0 c14 -10 19 -27 19 -62 l1
-49 -57 -3 -58 -3 0 43 c0 48 6 59 35 76 26 15 37 15 60 -2z m385 -6 c14 -14
20 -33 20 -65 l0 -46 -57 3 -58 3 1 49 c0 35 5 52 19 62 26 19 52 17 75 -6z
m-552 -22 c7 -7 12 -31 12 -54 0 -44 -12 -54 -67 -54 -21 0 -23 5 -23 48 0 52
12 72 45 72 12 0 26 -5 33 -12z m710 0 c7 -7 12 -34 12 -60 0 -43 -2 -48 -22
-48 -58 0 -68 10 -68 59 0 26 3 51 7 54 11 11 58 8 71 -5z m-347 -199 c16 -16
19 -30 17 -67 l-3 -47 -55 0 -55 0 -3 47 c-3 52 20 88 58 88 11 0 29 -9 41
-21z m-196 -3 c14 -10 19 -27 19 -62 l1 -49 -57 -3 -58 -3 0 46 c0 70 48 106
95 71z m388 -14 c11 -10 17 -30 17 -59 l0 -44 -57 3 c-64 3 -70 11 -58 75 9
51 54 63 98 25z m-555 -14 c7 -7 12 -29 12 -50 l0 -38 -45 0 -45 0 0 38 c0 43
14 62 45 62 12 0 26 -5 33 -12z m710 0 c7 -7 12 -29 12 -50 l0 -38 -45 0 -45
0 0 43 c0 24 3 47 7 50 11 11 58 8 71 -5z"/>
</g>
</svg>
